<mxfile host="app.diagrams.net" modified="2021-01-15T08:51:24.424Z" agent="5.0 (Windows NT 10.0; Win64; x64) AppleWebKit/537.36 (KHTML, like Gecko) Chrome/87.0.4280.141 Safari/537.36" etag="7w7cMXDg5iZo4Rwnqrww" version="14.2.3" type="github">
  <diagram id="Ym3Ol2DmxRsNjgrZLE0A" name="Page-1">
    <mxGraphModel dx="1038" dy="492" grid="1" gridSize="10" guides="1" tooltips="1" connect="1" arrows="1" fold="1" page="1" pageScale="1" pageWidth="827" pageHeight="1169" math="0" shadow="0">
      <root>
        <mxCell id="0" />
        <mxCell id="1" parent="0" />
        <mxCell id="z9_l_lBNYXqw1a9GPuy6-32" value="" style="edgeStyle=orthogonalEdgeStyle;rounded=0;orthogonalLoop=1;jettySize=auto;html=1;endArrow=block;endFill=0;endSize=8;" edge="1" parent="1" source="z9_l_lBNYXqw1a9GPuy6-6" target="z9_l_lBNYXqw1a9GPuy6-31">
          <mxGeometry relative="1" as="geometry" />
        </mxCell>
        <mxCell id="z9_l_lBNYXqw1a9GPuy6-6" value="模型格网简化处理技术" style="rounded=1;whiteSpace=wrap;html=1;fontSize=12;glass=0;strokeWidth=1;shadow=0;fontFamily=华文宋体;" vertex="1" parent="1">
          <mxGeometry x="169" y="240" width="150" height="40" as="geometry" />
        </mxCell>
        <mxCell id="z9_l_lBNYXqw1a9GPuy6-7" style="edgeStyle=orthogonalEdgeStyle;rounded=0;orthogonalLoop=1;jettySize=auto;html=1;exitX=0.5;exitY=1;exitDx=0;exitDy=0;endArrow=block;endFill=0;endSize=8;fontFamily=华文宋体;" edge="1" parent="1" target="z9_l_lBNYXqw1a9GPuy6-6">
          <mxGeometry relative="1" as="geometry">
            <mxPoint x="244" y="194" as="sourcePoint" />
          </mxGeometry>
        </mxCell>
        <mxCell id="z9_l_lBNYXqw1a9GPuy6-38" value="" style="edgeStyle=orthogonalEdgeStyle;rounded=0;orthogonalLoop=1;jettySize=auto;html=1;endArrow=block;endFill=0;endSize=8;" edge="1" parent="1" source="z9_l_lBNYXqw1a9GPuy6-24" target="z9_l_lBNYXqw1a9GPuy6-27">
          <mxGeometry relative="1" as="geometry" />
        </mxCell>
        <mxCell id="z9_l_lBNYXqw1a9GPuy6-39" value="" style="edgeStyle=orthogonalEdgeStyle;rounded=0;orthogonalLoop=1;jettySize=auto;html=1;endArrow=block;endFill=0;endSize=8;" edge="1" parent="1" source="z9_l_lBNYXqw1a9GPuy6-24" target="z9_l_lBNYXqw1a9GPuy6-25">
          <mxGeometry relative="1" as="geometry" />
        </mxCell>
        <mxCell id="z9_l_lBNYXqw1a9GPuy6-24" value="读取Revit格式BIM数据" style="rounded=1;whiteSpace=wrap;html=1;fontSize=12;glass=0;strokeWidth=1;shadow=0;fillColor=#f5f5f5;strokeColor=#666666;fontColor=#333333;fontFamily=华文宋体;" vertex="1" parent="1">
          <mxGeometry x="174" y="84" width="140" height="40" as="geometry" />
        </mxCell>
        <mxCell id="z9_l_lBNYXqw1a9GPuy6-25" value="获取BIM模型几何结构" style="rounded=1;whiteSpace=wrap;html=1;fontSize=12;glass=0;strokeWidth=1;shadow=0;fontFamily=华文宋体;" vertex="1" parent="1">
          <mxGeometry x="169" y="160" width="150" height="40" as="geometry" />
        </mxCell>
        <mxCell id="z9_l_lBNYXqw1a9GPuy6-30" value="" style="edgeStyle=orthogonalEdgeStyle;rounded=0;orthogonalLoop=1;jettySize=auto;html=1;endArrow=block;endFill=0;endSize=8;" edge="1" parent="1" source="z9_l_lBNYXqw1a9GPuy6-27" target="z9_l_lBNYXqw1a9GPuy6-28">
          <mxGeometry relative="1" as="geometry" />
        </mxCell>
        <mxCell id="z9_l_lBNYXqw1a9GPuy6-27" value="模型属性信息建库" style="rounded=1;whiteSpace=wrap;html=1;fontSize=12;glass=0;strokeWidth=1;shadow=0;fontFamily=华文宋体;" vertex="1" parent="1">
          <mxGeometry x="376" y="84" width="150" height="40" as="geometry" />
        </mxCell>
        <mxCell id="z9_l_lBNYXqw1a9GPuy6-35" value="属性信息链接技术" style="edgeStyle=orthogonalEdgeStyle;rounded=0;orthogonalLoop=1;jettySize=auto;html=1;exitX=0.5;exitY=1;exitDx=0;exitDy=0;endArrow=block;endFill=0;endSize=8;" edge="1" parent="1" source="z9_l_lBNYXqw1a9GPuy6-28" target="z9_l_lBNYXqw1a9GPuy6-33">
          <mxGeometry relative="1" as="geometry" />
        </mxCell>
        <mxCell id="z9_l_lBNYXqw1a9GPuy6-28" value="服务发布" style="rounded=1;whiteSpace=wrap;html=1;fontSize=12;glass=0;strokeWidth=1;shadow=0;fontFamily=华文宋体;" vertex="1" parent="1">
          <mxGeometry x="411" y="154" width="80" height="40" as="geometry" />
        </mxCell>
        <mxCell id="z9_l_lBNYXqw1a9GPuy6-34" value="3DTiles转换技术" style="edgeStyle=orthogonalEdgeStyle;rounded=0;orthogonalLoop=1;jettySize=auto;html=1;entryX=0;entryY=0.5;entryDx=0;entryDy=0;endArrow=block;endFill=0;endSize=8;" edge="1" parent="1" source="z9_l_lBNYXqw1a9GPuy6-31" target="z9_l_lBNYXqw1a9GPuy6-33">
          <mxGeometry relative="1" as="geometry" />
        </mxCell>
        <mxCell id="z9_l_lBNYXqw1a9GPuy6-31" value="八叉树场景资源优化技术" style="rounded=1;whiteSpace=wrap;html=1;fontSize=12;glass=0;strokeWidth=1;shadow=0;fontFamily=华文宋体;" vertex="1" parent="1">
          <mxGeometry x="159" y="315" width="170" height="40" as="geometry" />
        </mxCell>
        <mxCell id="z9_l_lBNYXqw1a9GPuy6-37" value="" style="edgeStyle=orthogonalEdgeStyle;rounded=0;orthogonalLoop=1;jettySize=auto;html=1;endArrow=block;endFill=0;endSize=8;" edge="1" parent="1" source="z9_l_lBNYXqw1a9GPuy6-33" target="z9_l_lBNYXqw1a9GPuy6-36">
          <mxGeometry relative="1" as="geometry" />
        </mxCell>
        <mxCell id="z9_l_lBNYXqw1a9GPuy6-33" value="Cesium平台加载" style="rounded=1;whiteSpace=wrap;html=1;fontSize=12;glass=0;strokeWidth=1;shadow=0;fontFamily=华文宋体;" vertex="1" parent="1">
          <mxGeometry x="392" y="245" width="118" height="40" as="geometry" />
        </mxCell>
        <mxCell id="z9_l_lBNYXqw1a9GPuy6-36" value="场景优化" style="rounded=1;whiteSpace=wrap;html=1;fontSize=12;glass=0;strokeWidth=1;shadow=0;fontFamily=华文宋体;fillColor=#f5f5f5;strokeColor=#666666;fontColor=#333333;" vertex="1" parent="1">
          <mxGeometry x="412" y="315" width="78" height="40" as="geometry" />
        </mxCell>
      </root>
    </mxGraphModel>
  </diagram>
</mxfile>
